<?xml version="1.0" encoding="utf-8"?>
<!-- Generator: Adobe Illustrator 19.2.1, SVG Export Plug-In . SVG Version: 6.00 Build 0)  -->
<svg version="1.1" id="Lockups" xmlns="http://www.w3.org/2000/svg" xmlns:xlink="http://www.w3.org/1999/xlink" x="0px" y="0px"
	 viewBox="0 0 150 40" style="enable-background:new 0 0 150 40;" xml:space="preserve">
<style type="text/css">
	.st0{fill:#ffffff;}
</style>

<path class="st0" d="M43.8,8.6c-0.1-0.3-0.3-0.4-0.6-0.4h-5.6c-0.3,0-0.5,0.1-0.6,0.4l-7,22.2c0,0.2,0,0.4,0.1,0.5l0.5,0.2h3.8
	c0.3,0,0.5-0.1,0.6-0.4l4.8-16.3c0.1-0.3,0.3-0.4,0.6-0.4c0.3,0,0.5,0.1,0.6,0.4l2.2,7.7h-3c-0.3,0-0.5,0.1-0.6,0.4L38.7,26
	c0,0.2,0,0.4,0.1,0.5l0.5,0.2h5.1l1.3,4.3c0.1,0.3,0.3,0.4,0.6,0.4h3.8l0.5-0.2c0.1-0.1,0.1-0.3,0.1-0.5l-7-22.2l0,0L43.8,8.6z"/>
<path class="st0" d="M60.4,28.1c0-0.2-0.1-0.3-0.3-0.4h-0.4L58,27.9c-0.6,0.1-1.2-0.3-1.3-0.9c0-0.1,0-0.2,0-0.3v-8.6h3.4
	c0.3,0,0.6-0.3,0.6-0.6v-2.6c0-0.3-0.3-0.6-0.6-0.6h-3.4v-4.1c0-0.2-0.1-0.3-0.2-0.4h-0.4l-3.5,0.5c-0.3,0-0.5,0.3-0.5,0.6v3.6h-2
	c-0.3,0-0.6,0.3-0.6,0.6v2.7c0,0.3,0.3,0.6,0.6,0.6H52v9.1c0,3.1,1.6,4.7,4.9,4.7c1.2,0,2.4-0.2,3.5-0.6c0.3-0.1,0.4-0.3,0.4-0.6
	l-0.4-2.6l0,0V28.1z"/>
<path class="st0" d="M66.9,7.7h-3.5c-0.3,0-0.6,0.3-0.6,0.6V31c0,0.3,0.3,0.6,0.6,0.6h3.5c0.3,0,0.6-0.3,0.6-0.6V8.3
	C67.5,8,67.2,7.7,66.9,7.7L66.9,7.7z"/>
<path class="st0" d="M78.3,25.2v2.1c-0.9,0.5-1.9,0.8-2.9,0.8c-0.6,0.1-1.3-0.3-1.4-0.9c0-0.2,0-0.4,0-0.6c0-1.1,0.2-1.4,1.5-1.4
	H78.3z M76,14c-1.9,0-3.7,0.2-5.5,0.7c-0.3,0.1-0.5,0.4-0.4,0.7l0.4,2.6c0,0.2,0.1,0.3,0.2,0.4h0.5c1.4-0.3,2.8-0.4,4.2-0.4
	c2.5,0,2.9,0.5,2.9,2.3v1.5h-3.8c-3.6,0-5.1,1.5-5.1,5S71.1,32,74,32c1.7,0,3.3-0.4,4.8-1.3l0.2,0.4c0.1,0.3,0.3,0.4,0.6,0.4h2.8
	c0.3,0,0.6-0.2,0.6-0.5V20.3C83,15.7,81.1,14,76,14L76,14z"/>
<path class="st0" d="M91.8,20.9c-2.2-0.6-2.2-0.6-2.2-1.8s0.1-1.2,1.9-1.2c1.4,0,2.8,0.2,4.2,0.4h0.5c0.1-0.1,0.2-0.2,0.2-0.4
	l0.3-2.7c0.1-0.3-0.2-0.6-0.5-0.7c0,0,0,0,0,0C94.6,14.2,93,14,91.4,14c-5.4,0-6.5,2-6.5,5.1s0.6,4.5,4.8,5.5s2.7,1.1,2.7,2
	S92.3,28,90.5,28c-1.6,0-3.1-0.2-4.6-0.6h-0.3c-0.2,0.1-0.3,0.2-0.3,0.4l-0.5,2.5c-0.1,0.3,0.1,0.6,0.4,0.7c1.8,0.6,3.7,0.9,5.6,0.9
	c5.2,0,6.3-2.2,6.3-5.5S96.5,22.1,91.8,20.9L91.8,20.9z"/>
<path class="st0" d="M105.4,20.9c-2.2-0.6-2.2-0.6-2.2-1.8s0.1-1.2,1.9-1.2c1.4,0,2.8,0.2,4.2,0.4h0.5c0.1-0.1,0.2-0.2,0.2-0.4
	l0.3-2.7c0.1-0.3-0.2-0.6-0.5-0.7c0,0,0,0,0,0c-1.6-0.3-3.2-0.5-4.8-0.5c-5.4,0-6.5,2-6.5,5.1s0.6,4.5,4.8,5.5s2.7,1.1,2.7,2
	s-0.1,1.4-1.9,1.4c-1.6,0-3.1-0.2-4.6-0.6h-0.3c-0.2,0.1-0.3,0.2-0.3,0.4l-0.5,2.5c-0.1,0.3,0.1,0.6,0.4,0.7
	c1.8,0.6,3.7,0.9,5.6,0.9c5.2,0,6.3-2.2,6.3-5.5S110.1,22.1,105.4,20.9L105.4,20.9z"/>
<path class="st0" d="M116.8,7.7h-3.5c-0.3,0-0.6,0.3-0.6,0.6v3.1c0,0.3,0.3,0.6,0.6,0.6h3.5c0.3,0,0.6-0.3,0.6-0.6V8.3
	C117.4,8,117.1,7.7,116.8,7.7L116.8,7.7z"/>
<path class="st0" d="M116.8,14.3h-3.5c-0.3,0-0.6,0.3-0.6,0.6V31c0,0.3,0.3,0.6,0.6,0.6h3.5c0.3,0,0.6-0.3,0.6-0.6V14.9
	C117.4,14.6,117.1,14.3,116.8,14.3L116.8,14.3z"/>
<path class="st0" d="M128.3,25.2v2.1c-0.9,0.5-1.9,0.8-2.9,0.8c-0.7,0.1-1.3-0.3-1.4-1c0-0.1,0-0.3,0-0.4c0-1.1,0.2-1.4,1.5-1.4h2.8
	V25.2z M125.9,14c-1.9,0-3.7,0.2-5.5,0.7c-0.3,0.1-0.5,0.4-0.4,0.7l0.4,2.6c0,0.2,0.1,0.3,0.2,0.4h0.5c1.4-0.3,2.8-0.4,4.2-0.4
	c2.5,0,2.9,0.5,2.9,2.3v1.5h-3.8c-3.6,0-5.1,1.5-5.1,5s1.7,5.2,4.6,5.2c1.7,0,3.3-0.4,4.8-1.3l0.2,0.6c0.1,0.3,0.3,0.4,0.6,0.4h2.8
	c0.3,0.1,0.6-0.2,0.7-0.5c0-0.1,0-0.1,0-0.2V20.3C133,15.7,131.1,14,125.9,14L125.9,14z"/>
<path class="st0" d="M146,14c-2.3,0.1-4.5,0.6-6.5,1.6l-0.3-0.9c-0.1-0.3-0.3-0.4-0.6-0.4H136c-0.3,0-0.6,0.3-0.6,0.6v0V31
	c0,0.3,0.3,0.6,0.6,0.6l0,0h3.5c0.3,0,0.6-0.3,0.6-0.6v0V19.8c1.3-0.7,2.7-1.1,4.1-1.3c0.5-0.1,1,0.2,1.1,0.6c0,0.2,0,0.3,0,0.5V31
	c0,0.3,0.3,0.6,0.6,0.6l0,0h3.5c0.3,0,0.6-0.3,0.6-0.6V19.2C150,15.7,148.6,14,146,14L146,14z"/>
<path class="st0" d="M34.4,0.3C34.2,0.1,34,0,33.7,0h-0.3c-4.9,2.7-10.5,4-16.1,4C11.7,4.1,6.2,2.7,1.2,0.1H0.8
	c-0.3,0-0.5,0-0.7,0.2c-0.2,0.4-0.2,0.8,0.2,1.1c2.4,1.8,5.1,3.2,7.9,4.2c2.9,1,6,1.5,9.1,1.5l0,0c3.1,0,6.2-0.5,9.1-1.5
	c2.8-1,5.5-2.4,7.9-4.2C34.6,1.1,34.7,0.6,34.4,0.3L34.4,0.3z"/>
<path class="st0" d="M28.9,7.8h-0.7c-1.3,0.5-2.6,0.9-4,1.2c-0.3,0.1-0.5,0.2-0.6,0.5c-0.9,2.6-3.3,5-5.9,7.6
	c-0.1,0.1-0.3,0.2-0.5,0.2c-0.2,0-0.4-0.1-0.5-0.2c-2.5-2.6-4.9-5-5.9-7.6c-0.1-0.2-0.2-0.4-0.4-0.5C9,8.7,7.6,8.2,6.3,7.7H5.7
	C5.5,7.8,5.4,8.1,5.5,8.3c0.3,2.3,1.1,4.6,2.5,6.5c1.5,2.1,3.2,4,5.1,5.8c3.3,3.4,6.5,6.6,6.8,10.3c0,0.3,0.3,0.6,0.6,0.6l0,0h3.9
	l0.5-0.2c0.1-0.1,0.2-0.3,0.2-0.5c-0.2-2.8-1.2-5.4-2.9-7.6L21,21.6c-0.1-0.2-0.1-0.4,0-0.6l0.4-0.4c1.9-1.8,3.6-3.7,5.1-5.8
	c1.4-1.9,2.3-4.1,2.6-6.4C29.1,8.2,29.1,8,28.9,7.8L28.9,7.8z"/>
<path class="st0" d="M13.1,23.5l-0.5-0.2c-0.2,0-0.4,0.1-0.5,0.3c-1.5,2.2-2.4,4.7-2.6,7.3c0,0.2,0.1,0.4,0.2,0.5l0.5,0.2H14
	c0.3,0,0.6-0.3,0.6-0.6l0,0c0.1-1.2,0.5-2.4,1.1-3.5c0.2-0.3,0.1-0.7-0.1-1c-0.8-1-1.7-2-2.6-3l0,0L13.1,23.5z"/>
<path class="st0" d="M17.3,9.7h2.2c0.3,0,0.6,0.3,0.6,0.6v0c0,0.1,0,0.1,0,0.2c-0.5,1.2-1.3,2.4-2.3,3.3L17.3,14l0,0l-0.5-0.2
	c-1-0.9-1.8-2.1-2.3-3.3c0-0.1,0-0.1,0-0.2c0-0.3,0.3-0.6,0.6-0.6h0H17.3z"/>
</svg>
